<svg width="39" height="39" viewBox="0 0 39 39" fill="none" xmlns="http://www.w3.org/2000/svg">
<mask id="mask0_7_74" style="mask-type:alpha" maskUnits="userSpaceOnUse" x="0" y="0" width="39" height="39">
<rect x="0.75" y="0.75" width="37.5" height="37.5" fill="#ED1C24"/>
</mask>
<g mask="url(#mask0_7_74)">
<path d="M11.6875 35.125V27.3125H3.875V11.6875H11.6875V3.875H27.3125V11.6875H35.125V27.3125H27.3125V35.125H11.6875ZM7 17.9375H14.8125C15.0729 17.9375 15.3203 18.0026 15.5547 18.1328C15.7891 18.263 15.9714 18.4323 16.1016 18.6406L17.4688 20.6719L19.5781 14.3438C19.6823 14.0312 19.8711 13.7708 20.1445 13.5625C20.418 13.3542 20.724 13.25 21.0625 13.25C21.3229 13.25 21.5703 13.3151 21.8047 13.4453C22.0391 13.5755 22.2214 13.7448 22.3516 13.9531L25.0078 17.9375H32V14.8125H24.1875V7H14.8125V14.8125H7V17.9375ZM14.8125 32H24.1875V24.1875H32V21.0625H24.1875C23.9271 21.0625 23.6797 20.9974 23.4453 20.8672C23.2109 20.737 23.0156 20.5677 22.8594 20.3594L21.5312 18.3281L19.4219 24.6562C19.3177 24.9688 19.1224 25.2292 18.8359 25.4375C18.5495 25.6458 18.237 25.75 17.8984 25.75C17.638 25.75 17.3906 25.6849 17.1562 25.5547C16.9219 25.4245 16.7396 25.2552 16.6094 25.0469L13.9531 21.0625H7V24.1875H14.8125V32Z" fill="#ED1C24"/>
</g>
</svg>
